v -0.2 0.08300657350858592 0.4217920575456071
v -0.2 0.49567438096342503 0.13947082084808948
v -0.2 0.36532781020610355 0.8344598650004462
v -0.2 0.9169934264914141 0.5782079424543929
v -0.2 0.5043256190365749 0.8605291791519106
v -0.2 0.6346721897938965 0.16554013499955367
v 1.2 0.08300657350858592 0.4217920575456071
v 1.2 0.49567438096342503 0.13947082084808948
v 1.2 0.36532781020610355 0.8344598650004462
v 1.2 0.9169934264914141 0.5782079424543929
v 1.2 0.5043256190365749 0.8605291791519106
v 1.2 0.6346721897938965 0.16554013499955367
v 0.08300657350858592 -0.2 0.4217920575456071
v 0.49567438096342503 -0.2 0.13947082084808948
v 0.36532781020610355 -0.2 0.8344598650004462
v 0.9169934264914141 -0.2 0.5782079424543929
v 0.5043256190365749 -0.2 0.8605291791519106
v 0.6346721897938965 -0.2 0.16554013499955367
v 0.08300657350858592 1.2 0.4217920575456071
v 0.49567438096342503 1.2 0.13947082084808948
v 0.36532781020610355 1.2 0.8344598650004462
v 0.9169934264914141 1.2 0.5782079424543929
v 0.5043256190365749 1.2 0.8605291791519106
v 0.6346721897938965 1.2 0.16554013499955367
v 0.08300657350858594 0.0830065735085862 0.4217920575456071
v 0.3372987424079133 0.33729874240791363 0.24782142472853474
v 0.08300657350858595 0.4427244742488952 0.4217920575456071
v 0.2980884764749203 0.4703218939950364 0.27464661091816156
v 0.08300657350858594 0.5866116345450194 0.4217920575456071
v 0.1810632822592019 0.5991934097338849 0.3547078537844698
v 0.08300657350858587 0.8099835622159759 0.42179205754560717
v 0.21636758892680485 0.7475648494680827 0.3305548781001796
v 0.2572215486573113 0.6089653692336856 0.3026051804820309
v 0.49567438096342503 0.49567438096342503 0.13947082084808948
v 0.33729874240791347 0.33729874240791363 0.24782142472853463
v 0.2980884764749201 0.4703218939950366 0.27464661091816167
v 0.25722154865731106 0.6089653692336858 0.3026051804820311
v 0.45756897012512393 0.634672189793897 0.16554013499955372
v 0.21636758892680447 0.7475648494680835 0.33055487810017986
v 0.4703218939950364 0.29808847647492004 0.2746466109181618
v 0.4427244742488953 0.08300657350858603 0.421792057545607
v 0.40905394322887884 0.20582718955706947 0.6013184542413108
v 0.4046185673189337 0.22200619194174281 0.6249672364547547
v 0.42336612185628764 0.42336612185628747 0.5250079898676869
v 0.49567438096342503 0.49567438096342514 0.1394708208480895
v 0.43813802534478197 0.5820251856409058 0.4462463390921301
v 0.49078502949777264 0.6346721897938963 0.16554013499955364
v 0.4551440779593977 0.7646803450527202 0.35557252862847755
v 0.36532781020610355 0.36532781020610355 0.8344598650004462
v 0.42336612185628764 0.4233661218562876 0.5250079898676869
v 0.4046185673189337 0.2220061919417427 0.6249672364547548
v 0.38246819932505227 0.6760155295563162 0.7430697917444643
v 0.4133883654549809 0.9169934264914144 0.578207942454393
v 0.44928288647894143 0.786060321150508 0.3868235530392401
v 0.4551440779593977 0.7646803450527206 0.35557252862847755
v 0.438138025344782 0.5820251856409058 0.44624633909213
v 0.4319477298650685 0.5758348901611925 0.47925209838039334
v 0.36532781020610355 0.5092149705022275 0.8344598650004462
v 0.36532781020610355 0.5424310298748756 0.8344598650004463
v 0.20582718955706933 0.40905394322887884 0.601318454241311
v 0.2220061919417427 0.4046185673189337 0.624967236454755
v 0.15449291506739707 0.15449291506739732 0.5262833532735622
v 0.3653278102061035 0.36532781020610333 0.8344598650004462
v 0.27265300935968795 0.7404358428622502 0.6989974842069703
v 0.312462588714023 0.6553804853846084 0.7571869850040859
v 0.23332312347134754 0.5454032591013958 0.6415091494049389
v 0.36532781020610355 0.5092149705022273 0.8344598650004462
v 0.36532781020610355 0.5424310298748767 0.8344598650004462
v 0.08300657350858584 0.4427244742488953 0.421792057545607
v 0.20582718955706947 0.40905394322887884 0.6013184542413113
v 0.15449291506739704 0.1544929150673971 0.5262833532735622
v 0.08300657350858597 0.08300657350858587 0.42179205754560717
v 0.27265300935968817 0.7404358428622506 0.6989974842069706
v 0.1900164377840241 0.9169934264914141 0.5782079424543929
v 0.23332312347134765 0.5454032591013958 0.641509149404939
v 0.08300657350858587 0.586611634545019 0.421792057545607
v 0.08300657350858584 0.8099835622159761 0.421792057545607
v 0.12456525007643876 0.851542238783829 0.4825382066507673
v 0.676015529556316 0.3824681993250522 0.7430697917444642
v 0.9169934264914141 0.41338836545498087 0.5782079424543929
v 0.9169934264914141 0.19001643778402444 0.5782079424543929
v 0.7404358428622508 0.2726530093596884 0.69899748420697
v 0.6553804853846086 0.3124625887140236 0.757186985004086
v 0.916993426491414 0.9169934264914135 0.578207942454393
v 0.7987072984112212 0.7987072984112207 0.6591318365902726
v 0.9169934264914141 0.5572755257511046 0.5782079424543929
v 0.7968545125492796 0.5418603560404969 0.660399395596402
v 0.7200952555117792 0.5320112827030832 0.7129132287167173
v 0.676015529556316 0.3824681993250523 0.7430697917444642
v 0.5424310298748766 0.3653278102061038 0.834459865000446
v 0.6553804853846085 0.31246258871402327 0.757186985004086
v 0.7987072984112203 0.7987072984112196 0.6591318365902733
v 0.5043256190365752 0.5043256190365746 0.8605291791519104
v 0.720095255511779 0.5320112827030832 0.7129132287167174
v 0.5991934097338849 0.18106328225920204 0.3547078537844698
v 0.5866116345450191 0.08300657350858603 0.42179205754560717
v 0.5758348901611923 0.4319477298650685 0.4792520983803936
v 0.5092149705022273 0.36532781020610366 0.8344598650004462
v 0.5454032591013956 0.23332312347134737 0.6415091494049387
v 0.5418603560404965 0.7968545125492796 0.6603993955964018
v 0.5320112827030832 0.7200952555117788 0.7129132287167173
v 0.5635793669490041 0.5635793669490041 0.5445967738355184
v 0.5043256190365749 0.5043256190365746 0.8605291791519106
v 0.5991934097338848 0.1810632822592022 0.35470785378447
v 0.6089653692336854 0.25722154865731117 0.3026051804820312
v 0.5758348901611923 0.4319477298650683 0.4792520983803935
v 0.5820251856409058 0.4381380253447817 0.44624633909213035
v 0.6346721897938965 0.4907850294977724 0.16554013499955356
v 0.6346721897938965 0.45756897012512415 0.16554013499955353
v 0.5418603560404964 0.7968545125492801 0.6603993955964023
v 0.5572755257511046 0.9169934264914144 0.5782079424543933
v 0.5635793669490042 0.5635793669490039 0.544596773835518
v 0.6346721897938965 0.6346721897938961 0.1655401349995535
v 0.6015900967649216 0.7553463497463029 0.34192906551904106
v 0.7475648494680834 0.21636758892680424 0.3305548781001802
v 0.8099835622159761 0.08300657350858598 0.42179205754560734
v 0.851542238783829 0.1245652500764387 0.4825382066507674
v 0.786060321150508 0.4492828864789415 0.38682355303924
v 0.7646803450527208 0.45514407795939776 0.3555725286284778
v 0.6346721897938965 0.49078502949777264 0.1655401349995537
v 0.6346721897938965 0.45756897012512404 0.1655401349995537
v 0.755346349746303 0.6015900967649219 0.3419290655190409
v 0.6346721897938966 0.6346721897938967 0.1655401349995538
v 0.7295435158137699 0.7295435158137695 0.3042131677367279
v 0.9169934264914141 0.41338836545498087 0.5782079424543928
v 0.786060321150508 0.4492828864789416 0.38682355303924
v 0.851542238783829 0.12456525007643882 0.4825382066507675
v 0.916993426491414 0.19001643778402366 0.5782079424543928
v 0.9169934264914141 0.5572755257511044 0.5782079424543929
v 0.755346349746303 0.6015900967649215 0.3419290655190409
v 0.7295435158137699 0.72954351581377 0.3042131677367279
v 0.916993426491414 0.9169934264914139 0.5782079424543928
v 0.08300657350858592 0.08300657350858609 0.421792057545607
v 0.3372987424079132 0.3372987424079135 0.24782142472853458
v 0.4427244742488952 0.083006573508586 0.42179205754560706
v 0.4703218939950364 0.2980884764749201 0.27464661091816167
v 0.5991934097338847 0.18106328225920199 0.35470785378446973
v 0.586611634545019 0.08300657350858602 0.42179205754560706
v 0.8099835622159761 0.08300657350858594 0.4217920575456071
v 0.7475648494680833 0.21636758892680424 0.33055487810018
v 0.6089653692336852 0.25722154865731106 0.302605180482031
v 0.49567438096342503 0.4956743809634248 0.13947082084808965
v 0.33729874240791363 0.33729874240791347 0.24782142472853463
v 0.4703218939950364 0.2980884764749201 0.27464661091816167
v 0.6346721897938965 0.457568970125124 0.1655401349995537
v 0.6089653692336852 0.25722154865731117 0.302605180482031
v 0.7475648494680831 0.21636758892680447 0.33055487810017986
v 0.2980884764749201 0.47032189399503643 0.2746466109181614
v 0.08300657350858581 0.4427244742488953 0.42179205754560695
v 0.2058271895570693 0.4090539432288788 0.601318454241311
v 0.2220061919417427 0.40461856731893364 0.6249672364547549
v 0.4233661218562877 0.42336612185628764 0.525007989867687
v 0.49567438096342514 0.49567438096342503 0.13947082084808948
v 0.6346721897938963 0.49078502949777264 0.16554013499955372
v 0.5820251856409058 0.43813802534478197 0.4462463390921303
v 0.7646803450527206 0.45514407795939765 0.35557252862847777
v 0.3653278102061039 0.3653278102061036 0.834459865000446
v 0.42336612185628747 0.42336612185628764 0.5250079898676869
v 0.22200619194174276 0.4046185673189337 0.6249672364547549
v 0.6760155295563162 0.3824681993250524 0.7430697917444639
v 0.9169934264914144 0.4133883654549809 0.5782079424543927
v 0.7860603211505082 0.44928288647894143 0.3868235530392399
v 0.7646803450527209 0.4551440779593977 0.3555725286284774
v 0.5820251856409062 0.438138025344782 0.4462463390921299
v 0.5758348901611927 0.43194772986506846 0.4792520983803935
v 0.5092149705022277 0.3653278102061036 0.834459865000446
v 0.5424310298748769 0.3653278102061036 0.834459865000446
v 0.4046185673189337 0.22200619194174262 0.6249672364547549
v 0.40905394322887884 0.20582718955706927 0.601318454241311
v 0.15449291506739726 0.1544929150673971 0.5262833532735622
v 0.36532781020610355 0.36532781020610355 0.8344598650004462
v 0.6553804853846086 0.31246258871402327 0.7571869850040863
v 0.7404358428622508 0.27265300935968806 0.6989974842069704
v 0.5454032591013955 0.23332312347134743 0.6415091494049386
v 0.5092149705022271 0.3653278102061035 0.8344598650004462
v 0.5424310298748765 0.3653278102061035 0.8344598650004462
v 0.4427244742488953 0.08300657350858603 0.4217920575456073
v 0.4090539432288787 0.20582718955706933 0.601318454241311
v 0.15449291506739687 0.15449291506739704 0.5262833532735622
v 0.08300657350858592 0.08300657350858599 0.4217920575456072
v 0.9169934264914139 0.19001643778402427 0.5782079424543931
v 0.7404358428622506 0.27265300935968806 0.6989974842069704
v 0.5454032591013951 0.23332312347134743 0.6415091494049386
v 0.586611634545019 0.08300657350858602 0.4217920575456072
v 0.8099835622159763 0.083006573508586 0.4217920575456072
v 0.851542238783829 0.12456525007643876 0.4825382066507673
v 0.38246819932505244 0.676015529556316 0.7430697917444642
v 0.41338836545498064 0.9169934264914141 0.5782079424543929
v 0.19001643778402394 0.9169934264914141 0.5782079424543929
v 0.2726530093596881 0.7404358428622504 0.6989974842069704
v 0.31246258871402327 0.6553804853846085 0.757186985004086
v 0.9169934264914139 0.9169934264914137 0.5782079424543931
v 0.7987072984112211 0.7987072984112209 0.6591318365902729
v 0.5572755257511046 0.9169934264914141 0.5782079424543929
v 0.5418603560404964 0.7968545125492797 0.6603993955964019
v 0.5320112827030832 0.720095255511779 0.7129132287167173
v 0.36532781020610366 0.5424310298748758 0.8344598650004466
v 0.38246819932505244 0.6760155295563162 0.7430697917444642
v 0.31246258871402327 0.6553804853846086 0.757186985004086
v 0.7987072984112205 0.79870729841122 0.6591318365902735
v 0.504325619036575 0.5043256190365749 0.8605291791519106
v 0.532011282703083 0.720095255511779 0.7129132287167173
v 0.08300657350858592 0.5866116345450191 0.42179205754560706
v 0.18106328225920182 0.5991934097338849 0.3547078537844698
v 0.4319477298650681 0.5758348901611923 0.4792520983803934
v 0.36532781020610366 0.5092149705022273 0.8344598650004461
v 0.23332312347134765 0.5454032591013956 0.6415091494049389
v 0.7200952555117792 0.5320112827030832 0.7129132287167171
v 0.7968545125492796 0.5418603560404965 0.660399395596402
v 0.5635793669490048 0.5635793669490041 0.5445967738355184
v 0.5043256190365752 0.5043256190365749 0.8605291791519106
v 0.2572215486573111 0.6089653692336855 0.3026051804820309
v 0.18106328225920176 0.5991934097338849 0.3547078537844698
v 0.43194772986506796 0.5758348901611923 0.47925209838039345
v 0.438138025344782 0.5820251856409058 0.44624633909213024
v 0.490785029497773 0.6346721897938965 0.1655401349995538
v 0.45756897012512426 0.6346721897938965 0.16554013499955378
v 0.9169934264914139 0.5572755257511047 0.5782079424543929
v 0.7968545125492794 0.5418603560404965 0.6603993955964019
v 0.5635793669490041 0.5635793669490042 0.5445967738355181
v 0.6346721897938965 0.6346721897938965 0.1655401349995538
v 0.7553463497463031 0.6015900967649216 0.3419290655190409
v 0.21636758892680474 0.7475648494680829 0.3305548781001796
v 0.08300657350858592 0.809983562215976 0.42179205754560717
v 0.1245652500764387 0.8515422387838291 0.48253820665076763
v 0.4492828864789407 0.7860603211505081 0.3868235530392402
v 0.45514407795939776 0.7646803450527206 0.35557252862847755
v 0.49078502949777275 0.6346721897938965 0.1655401349995536
v 0.45756897012512404 0.6346721897938964 0.16554013499955358
v 0.6015900967649215 0.7553463497463031 0.341929065519041
v 0.6346721897938963 0.6346721897938964 0.16554013499955358
v 0.72954351581377 0.7295435158137699 0.3042131677367278
v 0.41338836545498053 0.9169934264914141 0.5782079424543929
v 0.44928288647894093 0.7860603211505082 0.3868235530392403
v 0.12456525007643887 0.851542238783829 0.4825382066507675
v 0.190016437784024 0.916993426491414 0.5782079424543928
v 0.5572755257511048 0.9169934264914142 0.578207942454393
v 0.6015900967649215 0.7553463497463032 0.34192906551904123
v 0.7295435158137702 0.7295435158137699 0.30421316773672785
v 0.9169934264914144 0.9169934264914139 0.5782079424543927
vn -0.5646424733950354 0.0 -0.8253356149096783
vn -0.5646424733950354 0.0 -0.8253356149096783
vn -0.5646424733950354 0.0 -0.8253356149096783
vn -0.5646424733950354 0.0 -0.8253356149096783
vn -0.5646424733950354 0.0 -0.8253356149096783
vn -0.5646424733950354 0.0 -0.8253356149096783
vn -0.5646424733950354 0.0 -0.8253356149096783
vn 0.9828629319409768 0.0 0.1843378881738283
vn 0.9828629319409768 0.0 0.1843378881738283
vn 0.9828629319409768 0.0 0.1843378881738283
vn 0.9828629319409768 0.0 0.1843378881738283
vn 0.9828629319409768 0.0 0.1843378881738283
vn 0.9828629319409768 0.0 0.1843378881738283
vn 0.9828629319409768 0.0 0.1843378881738283
vn 0.9828629319409768 0.0 0.1843378881738283
vn 0.9828629319409768 0.0 0.1843378881738283
vn 0.9828629319409768 0.0 0.1843378881738283
vn 0.9828629319409768 0.0 0.1843378881738283
vn 0.9828629319409768 0.0 0.1843378881738283
vn -0.8253356149096783 0.0 0.5646424733950354
vn -0.8253356149096783 0.0 0.5646424733950354
vn -0.8253356149096783 0.0 0.5646424733950354
vn -0.8253356149096783 0.0 0.5646424733950354
vn -0.8253356149096783 0.0 0.5646424733950354
vn -0.8253356149096783 0.0 0.5646424733950354
vn -0.8253356149096783 0.0 0.5646424733950354
vn -0.8253356149096783 0.0 0.5646424733950354
vn -0.8253356149096783 0.0 0.5646424733950354
vn -0.8253356149096783 0.0 0.5646424733950354
vn -0.8253356149096783 0.0 0.5646424733950354
vn 0.5646424733950354 0.0 0.8253356149096783
vn 0.5646424733950354 0.0 0.8253356149096783
vn 0.5646424733950354 0.0 0.8253356149096783
vn 0.5646424733950354 0.0 0.8253356149096783
vn 0.5646424733950354 0.0 0.8253356149096783
vn 0.5646424733950354 0.0 0.8253356149096783
vn 0.5646424733950354 0.0 0.8253356149096783
vn 0.5646424733950354 0.0 0.8253356149096783
vn -0.9828629319409768 0.0 -0.1843378881738283
vn -0.9828629319409768 0.0 -0.1843378881738283
vn -0.9828629319409768 0.0 -0.1843378881738283
vn -0.9828629319409768 0.0 -0.1843378881738283
vn -0.9828629319409768 0.0 -0.1843378881738283
vn -0.9828629319409768 0.0 -0.1843378881738283
vn -0.9828629319409768 0.0 -0.1843378881738283
vn -0.9828629319409768 0.0 -0.1843378881738283
vn -0.9828629319409768 0.0 -0.1843378881738283
vn -0.9828629319409768 0.0 -0.1843378881738283
vn -0.9828629319409768 0.0 -0.1843378881738283
vn -0.9828629319409768 0.0 -0.1843378881738283
vn 0.8253356149096783 0.0 -0.5646424733950354
vn 0.8253356149096783 0.0 -0.5646424733950354
vn 0.8253356149096783 0.0 -0.5646424733950354
vn 0.8253356149096783 0.0 -0.5646424733950354
vn 0.8253356149096783 0.0 -0.5646424733950354
vn 0.8253356149096783 0.0 -0.5646424733950354
vn 0.8253356149096783 0.0 -0.5646424733950354
vn 0.8253356149096783 0.0 -0.5646424733950354
vn 0.8253356149096783 0.0 -0.5646424733950354
vn 0.8253356149096783 0.0 -0.5646424733950354
vn 0.0 -0.5646424733950354 -0.8253356149096783
vn 0.0 -0.5646424733950354 -0.8253356149096783
vn 0.0 -0.5646424733950354 -0.8253356149096783
vn 0.0 -0.5646424733950354 -0.8253356149096783
vn 0.0 -0.5646424733950354 -0.8253356149096783
vn 0.0 -0.5646424733950354 -0.8253356149096783
vn 0.0 -0.5646424733950354 -0.8253356149096783
vn 0.0 0.9828629319409768 0.1843378881738283
vn 0.0 0.9828629319409768 0.1843378881738283
vn 0.0 0.9828629319409768 0.1843378881738283
vn 0.0 0.9828629319409768 0.1843378881738283
vn 0.0 0.9828629319409768 0.1843378881738283
vn 0.0 0.9828629319409768 0.1843378881738283
vn 0.0 0.9828629319409768 0.1843378881738283
vn 0.0 0.9828629319409768 0.1843378881738283
vn 0.0 0.9828629319409768 0.1843378881738283
vn 0.0 0.9828629319409768 0.1843378881738283
vn 0.0 0.9828629319409768 0.1843378881738283
vn 0.0 0.9828629319409768 0.1843378881738283
vn 0.0 -0.8253356149096783 0.5646424733950354
vn 0.0 -0.8253356149096783 0.5646424733950354
vn 0.0 -0.8253356149096783 0.5646424733950354
vn 0.0 -0.8253356149096783 0.5646424733950354
vn 0.0 -0.8253356149096783 0.5646424733950354
vn 0.0 -0.8253356149096783 0.5646424733950354
vn 0.0 -0.8253356149096783 0.5646424733950354
vn 0.0 -0.8253356149096783 0.5646424733950354
vn 0.0 -0.8253356149096783 0.5646424733950354
vn 0.0 -0.8253356149096783 0.5646424733950354
vn 0.0 -0.8253356149096783 0.5646424733950354
vn 0.0 0.5646424733950354 0.8253356149096783
vn 0.0 0.5646424733950354 0.8253356149096783
vn 0.0 0.5646424733950354 0.8253356149096783
vn 0.0 0.5646424733950354 0.8253356149096783
vn 0.0 0.5646424733950354 0.8253356149096783
vn 0.0 0.5646424733950354 0.8253356149096783
vn 0.0 0.5646424733950354 0.8253356149096783
vn 0.0 0.5646424733950354 0.8253356149096783
vn 0.0 -0.9828629319409768 -0.1843378881738283
vn 0.0 -0.9828629319409768 -0.1843378881738283
vn 0.0 -0.9828629319409768 -0.1843378881738283
vn 0.0 -0.9828629319409768 -0.1843378881738283
vn 0.0 -0.9828629319409768 -0.1843378881738283
vn 0.0 -0.9828629319409768 -0.1843378881738283
vn 0.0 -0.9828629319409768 -0.1843378881738283
vn 0.0 -0.9828629319409768 -0.1843378881738283
vn 0.0 -0.9828629319409768 -0.1843378881738283
vn 0.0 -0.9828629319409768 -0.1843378881738283
vn 0.0 -0.9828629319409768 -0.1843378881738283
vn 0.0 -0.9828629319409768 -0.1843378881738283
vn 0.0 0.8253356149096783 -0.5646424733950354
vn 0.0 0.8253356149096783 -0.5646424733950354
vn 0.0 0.8253356149096783 -0.5646424733950354
vn 0.0 0.8253356149096783 -0.5646424733950354
vn 0.0 0.8253356149096783 -0.5646424733950354
vn 0.0 0.8253356149096783 -0.5646424733950354
vn 0.0 0.8253356149096783 -0.5646424733950354
vn 0.0 0.8253356149096783 -0.5646424733950354
vn 0.0 0.8253356149096783 -0.5646424733950354
vn 0.0 0.8253356149096783 -0.5646424733950354
f 28//1 25//1 27//1
f 25//2 28//2 26//2
f 30//3 29//3 31//3
f 32//4 33//4 30//4
f 31//5 32//5 30//5
f 34//6 35//6 36//6
f 38//7 37//7 39//7
f 40//8 45//8 44//8
f 41//9 40//9 44//9
f 43//10 42//10 44//10
f 41//11 44//11 42//11
f 48//12 46//12 47//12
f 49//13 51//13 50//13
f 57//14 53//14 52//14
f 59//15 58//15 52//15
f 57//16 52//16 58//16
f 56//17 55//17 54//17
f 57//18 54//18 53//18
f 54//19 57//19 56//19
f 62//20 63//20 61//20
f 61//21 60//21 62//21
f 65//22 67//22 68//22
f 64//23 66//23 65//23
f 67//24 65//24 66//24
f 69//25 72//25 71//25
f 71//26 70//26 69//26
f 77//27 76//27 78//27
f 78//28 76//28 74//28
f 74//29 75//29 73//29
f 75//30 74//30 76//30
f 82//31 81//31 80//31
f 79//32 83//32 82//32
f 80//33 79//33 82//33
f 85//34 86//34 84//34
f 88//35 87//35 85//35
f 86//36 85//36 87//36
f 90//37 91//37 89//37
f 93//38 94//38 92//38
f 97//39 99//39 98//39
f 95//40 96//40 97//40
f 99//41 97//41 96//41
f 102//42 103//42 101//42
f 101//43 100//43 102//43
f 109//44 105//44 108//44
f 108//45 105//45 107//45
f 104//46 106//46 107//46
f 104//47 107//47 105//47
f 114//48 113//48 112//48
f 112//49 110//49 111//49
f 112//50 111//50 114//50
f 119//51 121//51 120//51
f 115//52 121//52 119//52
f 118//53 117//53 116//53
f 118//54 115//54 119//54
f 116//55 115//55 118//55
f 124//56 122//56 123//56
f 125//57 128//57 126//57
f 127//58 126//58 128//58
f 132//59 129//59 131//59
f 130//60 131//60 129//60
f 135//61 133//61 136//61
f 134//62 136//62 133//62
f 139//63 138//63 137//63
f 137//64 141//64 140//64
f 137//65 140//65 139//65
f 144//66 143//66 142//66
f 147//67 146//67 145//67
f 152//68 153//68 148//68
f 152//69 148//69 149//69
f 152//70 150//70 151//70
f 150//71 152//71 149//71
f 154//72 155//72 156//72
f 158//73 159//73 157//73
f 160//74 161//74 165//74
f 160//75 166//75 167//75
f 166//76 160//76 165//76
f 162//77 163//77 164//77
f 161//78 162//78 165//78
f 164//79 165//79 162//79
f 168//80 171//80 170//80
f 170//81 169//81 168//81
f 176//82 175//82 172//82
f 172//83 174//83 173//83
f 174//84 172//84 175//84
f 179//85 180//85 177//85
f 177//86 178//86 179//86
f 186//87 184//87 185//87
f 181//88 184//88 186//88
f 182//89 183//89 181//89
f 184//90 181//90 183//90
f 188//91 189//91 190//91
f 190//92 191//92 187//92
f 190//93 187//93 188//93
f 192//94 194//94 193//94
f 193//95 195//95 196//95
f 195//96 193//96 194//96
f 198//97 199//97 197//97
f 200//98 202//98 201//98
f 206//99 207//99 205//99
f 205//100 203//100 204//100
f 203//101 205//101 207//101
f 208//102 211//102 210//102
f 210//103 209//103 208//103
f 216//104 212//104 217//104
f 215//105 212//105 216//105
f 215//106 214//106 213//106
f 212//107 215//107 213//107
f 220//108 221//108 222//108
f 218//109 219//109 220//109
f 222//110 218//110 220//110
f 228//111 229//111 227//111
f 227//112 229//112 223//112
f 224//113 225//113 226//113
f 227//114 223//114 226//114
f 226//115 223//115 224//115
f 231//116 230//116 232//116
f 234//117 236//117 233//117
f 236//118 234//118 235//118
f 239//119 237//119 240//119
f 237//120 239//120 238//120
