v 0.0 0.0 0.0
v 1.0 0.0 0.0
v 0.0 1.0 0.0
v 1.0 1.0 0.0
v 0.0 0.0 1.0
v 1.0 0.0 1.0
v 0.0 1.0 1.0
v 1.0 1.0 1.0
v 0.2 0.2 -0.2
v 0.7 0.2 -0.2
v 0.2 0.7 -0.2
v 0.8 0.8 -0.2
v 0.3 0.8 -0.2
v 0.8 0.3 -0.2
v 0.2 0.2 1.2
v 0.7 0.2 1.2
v 0.2 0.7 1.2
v 0.8 0.8 1.2
v 0.3 0.8 1.2
v 0.8 0.3 1.2
v 0.6285714285714286 0.2 0.0
v 0.2 0.2 0.0
v 0.2 0.2 1.0
v 0.27142857142857163 0.2 1.0
v 0.2 0.2 0.6499999999999997
v 0.4500000000000001 0.2 0.49999999999999994
v 0.7 0.2 0.0
v 0.6285714285714287 0.2 1.1102230246251565e-16
v 0.2714285714285715 0.2 1.0000000000000002
v 0.7 0.2 0.9999999999999998
v 0.44820526672520844 0.2 1.0000000000000002
v 0.7 0.19999999999999998 0.0
v 0.4499999999999999 0.45000000000000007 0.0
v 0.7 0.19999999999999998 1.0
v 0.6285714285714286 0.27142857142857146 1.0
v 0.2714285714285714 0.6285714285714286 0.0
v 0.7 0.19999999999999998 0.6499999999999997
v 0.4482052667252083 0.4517947332747917 0.4949747468305831
v 0.2 0.7 0.0
v 0.27142857142857146 0.6285714285714284 5.551115123125783e-17
v 0.6285714285714286 0.27142857142857135 1.0000000000000002
v 0.45 0.44999999999999996 1.0
v 0.20000000000000007 0.6999999999999998 1.0
v 0.2 0.27142857142857135 0.0
v 0.2 0.7 0.0
v 0.2 0.7 1.0
v 0.2 0.6285714285714283 1.0
v 0.2 0.7 0.6499999999999997
v 0.2 0.44999999999999984 0.49999999999999994
v 0.2 0.2714285714285714 -2.7755575615628914e-17
v 0.2 0.20000000000000007 -5.551115123125783e-17
v 0.2 0.6285714285714283 1.0
v 0.2 0.20000000000000018 0.9999999999999998
v 0.2 0.37677669529663704 0.9999999999999998
v 0.37142857142857144 0.8 0.0
v 0.7999999999999999 0.8 0.0
v 0.7999999999999999 0.8 1.0
v 0.7285714285714284 0.8 1.0
v 0.7999999999999999 0.8 0.6499999999999997
v 0.5499999999999999 0.8 0.49999999999999994
v 0.29999999999999993 0.8 -5.551115123125783e-17
v 0.37142857142857144 0.8 5.551115123125783e-17
v 0.7285714285714285 0.8 1.0000000000000004
v 0.2999999999999999 0.8 0.9999999999999998
v 0.5517947332747917 0.8 1.0000000000000002
v 0.7285714285714285 0.3714285714285715 0.0
v 0.5499999999999998 0.5500000000000002 0.0
v 0.37142857142857155 0.7285714285714284 1.0
v 0.30000000000000004 0.8 1.0
v 0.30000000000000004 0.8 0.0
v 0.30000000000000004 0.8 0.6499999999999997
v 0.5517947332747917 0.5482052667252083 0.49497474683058323
v 0.8 0.30000000000000004 0.0
v 0.7285714285714286 0.3714285714285714 8.326672684688674e-17
v 0.37142857142857144 0.7285714285714286 1.0000000000000004
v 0.5499999999999998 0.5500000000000002 1.0000000000000002
v 0.8 0.30000000000000004 0.9999999999999998
v 0.8 0.7285714285714288 0.0
v 0.8 0.3 0.0
v 0.8 0.3 1.0
v 0.8 0.3714285714285718 1.0
v 0.8 0.3 0.6499999999999997
v 0.8 0.5500000000000003 0.49999999999999994
v 0.8 0.8 -5.551115123125783e-17
v 0.8 0.7285714285714288 -2.7755575615628914e-17
v 0.8 0.3714285714285717 0.9999999999999998
v 0.8 0.8 0.9999999999999998
v 0.8 0.6232233047033632 0.9999999999999998
v 0.6285714285714286 0.20000000000000004 0.0
v 0.19999999999999996 0.2 0.0
v 0.4499999999999998 0.45 0.0
v 0.7 0.20000000000000004 0.0
v 0.5881966011250104 0.3118033988749895 0.0
v 0.6440983005625052 0.25590169943749475 0.0
v 0.41428571428571426 0.20000000000000004 0.0
v 0.5214285714285714 0.20000000000000004 0.0
v 0.7285714285714286 0.3714285714285714 0.0
v 0.5499999999999998 0.55 0.0
v 0.7999999999999998 0.8 0.0
v 0.7999999999999998 0.7285714285714288 0.0
v 0.7999999999999998 0.2999999999999999 0.0
v 0.7999999999999998 0.47677669529663674 0.0
v 0.6392857142857142 0.46071428571428574 0.0
v 0.7999999999999998 0.38838834764831837 0.0
v 0.7720491502812525 0.32795084971874733 0.0
v 0.7999999999999998 0.3441941738241591 0.0
v 0.27142857142857146 0.6285714285714286 0.0
v 0.4499999999999999 0.4499999999999999 0.0
v 0.20000000000000004 0.19999999999999998 0.0
v 0.2 0.27142857142857135 0.0
v 0.19999999999999993 0.6999999999999998 0.0
v 0.32500000000000007 0.32500000000000007 0.0
v 0.33819660112501043 0.5618033988749894 0.0
v 0.19999999999999998 0.44999999999999984 0.0
v 0.37142857142857144 0.8 0.0
v 0.7999999999999999 0.7999999999999998 0.0
v 0.5499999999999999 0.5499999999999999 0.0
v 0.29999999999999993 0.8000000000000002 0.0
v 0.4118033988749894 0.6881966011250107 0.0
v 0.5857142857142856 0.7999999999999998 0.0
v 0.35590169943749467 0.7440983005625055 0.0
v 0.32795084971874733 0.7720491502812528 0.0
v 0.47857142857142854 0.7999999999999999 0.0
v 0.425 0.8 0.0
v 0.3441941738241591 0.8 0.0
v 0.2714285714285716 0.2 1.0
v 0.19999999999999996 0.2 1.0
v 0.4499999999999996 0.44999999999999984 1.0
v 0.6285714285714283 0.2714285714285714 1.0
v 0.6999999999999998 0.20000000000000004 1.0
v 0.3249999999999999 0.325 1.0
v 0.5618033988749892 0.33819660112501043 1.0
v 0.4499999999999998 0.2 1.0
v 0.7999999999999998 0.2999999999999999 1.0
v 0.5499999999999998 0.55 1.0
v 0.7999999999999998 0.8 1.0
v 0.8 0.3714285714285718 1.0
v 0.6881966011250104 0.4118033988749894 1.0
v 0.7999999999999999 0.5857142857142859 1.0
v 0.744098300562505 0.35590169943749467 1.0
v 0.7999999999999999 0.4785714285714288 1.0
v 0.7720491502812524 0.3279508497187473 1.0
v 0.7999999999999999 0.42500000000000027 1.0
v 0.7999999999999999 0.3441941738241592 1.0
v 0.19999999999999993 0.6999999999999998 1.0
v 0.44999999999999973 0.44999999999999973 1.0
v 0.20000000000000004 0.19999999999999998 1.0
v 0.20000000000000004 0.6285714285714283 1.0
v 0.31180339887498937 0.5881966011250103 1.0
v 0.25590169943749463 0.644098300562505 1.0
v 0.20000000000000004 0.41428571428571415 1.0
v 0.20000000000000004 0.5214285714285712 1.0
v 0.7285714285714284 0.7999999999999999 1.0
v 0.7999999999999999 0.7999999999999998 1.0
v 0.5499999999999999 0.5499999999999999 1.0
v 0.37142857142857155 0.7285714285714284 1.0
v 0.30000000000000004 0.8000000000000003 1.0
v 0.47677669529663685 0.8 1.0
v 0.46071428571428574 0.6392857142857141 1.0
v 0.3883883476483184 0.8000000000000002 1.0
v 0.32795084971874733 0.7720491502812528 1.0
v 0.34419417382415923 0.8000000000000003 1.0
vn 0.0 -1.0 0.0
vn 0.0 -1.0 0.0
vn 0.0 -1.0 0.0
vn 0.0 -1.0 0.0
vn 0.0 -1.0 0.0
vn 0.0 -1.0 0.0
vn 0.0 -1.0 0.0
vn 0.7071067811865476 0.7071067811865476 0.0
vn 0.7071067811865476 0.7071067811865476 0.0
vn 0.7071067811865476 0.7071067811865476 0.0
vn 0.7071067811865476 0.7071067811865476 0.0
vn 0.7071067811865476 0.7071067811865476 0.0
vn 0.7071067811865476 0.7071067811865476 0.0
vn 0.7071067811865476 0.7071067811865476 0.0
vn 0.7071067811865476 0.7071067811865476 0.0
vn -1.0 0.0 0.0
vn -1.0 0.0 0.0
vn -1.0 0.0 0.0
vn -1.0 0.0 0.0
vn -1.0 0.0 0.0
vn -1.0 0.0 0.0
vn -1.0 0.0 0.0
vn 0.0 1.0 0.0
vn 0.0 1.0 0.0
vn 0.0 1.0 0.0
vn 0.0 1.0 0.0
vn 0.0 1.0 0.0
vn 0.0 1.0 0.0
vn 0.0 1.0 0.0
vn -0.7071067811865476 -0.7071067811865476 0.0
vn -0.7071067811865476 -0.7071067811865476 0.0
vn -0.7071067811865476 -0.7071067811865476 0.0
vn -0.7071067811865476 -0.7071067811865476 0.0
vn -0.7071067811865476 -0.7071067811865476 0.0
vn -0.7071067811865476 -0.7071067811865476 0.0
vn -0.7071067811865476 -0.7071067811865476 0.0
vn -0.7071067811865476 -0.7071067811865476 0.0
vn 1.0 0.0 0.0
vn 1.0 0.0 0.0
vn 1.0 0.0 0.0
vn 1.0 0.0 0.0
vn 1.0 0.0 0.0
vn 1.0 0.0 0.0
vn 1.0 0.0 0.0
vn -0.0 -0.0 -1.0
vn -0.0 -0.0 -1.0
vn -0.0 -0.0 -1.0
vn -0.0 -0.0 -1.0
vn -0.0 -0.0 -1.0
vn -0.0 -0.0 -1.0
vn -0.0 -0.0 -1.0
vn -0.0 -0.0 -1.0
vn -0.0 -0.0 -1.0
vn -0.0 -0.0 -1.0
vn -0.0 -0.0 -1.0
vn -0.0 -0.0 -1.0
vn -0.0 -0.0 -1.0
vn -0.0 -0.0 -1.0
vn -0.0 -0.0 -1.0
vn -0.0 -0.0 -1.0
vn -0.0 -0.0 -1.0
vn -0.0 -0.0 -1.0
vn -0.0 -0.0 -1.0
vn -0.0 -0.0 -1.0
vn -0.0 -0.0 -1.0
vn -0.0 -0.0 -1.0
vn -0.0 -0.0 -1.0
vn -0.0 -0.0 -1.0
vn -0.0 -0.0 -1.0
vn -0.0 -0.0 -1.0
vn -0.0 -0.0 -1.0
vn -0.0 -0.0 -1.0
vn -0.0 -0.0 -1.0
vn 0.0 0.0 1.0
vn 0.0 0.0 1.0
vn 0.0 0.0 1.0
vn 0.0 0.0 1.0
vn 0.0 0.0 1.0
vn 0.0 0.0 1.0
vn 0.0 0.0 1.0
vn 0.0 0.0 1.0
vn 0.0 0.0 1.0
vn 0.0 0.0 1.0
vn 0.0 0.0 1.0
vn 0.0 0.0 1.0
vn 0.0 0.0 1.0
vn 0.0 0.0 1.0
vn 0.0 0.0 1.0
vn 0.0 0.0 1.0
vn 0.0 0.0 1.0
vn 0.0 0.0 1.0
vn 0.0 0.0 1.0
vn 0.0 0.0 1.0
vn 0.0 0.0 1.0
vn 0.0 0.0 1.0
vn 0.0 0.0 1.0
vn 0.0 0.0 1.0
vn 0.0 0.0 1.0
vn 0.0 0.0 1.0
vn 0.0 0.0 1.0
vn 0.0 0.0 1.0
vn 0.0 0.0 1.0
f 21//1 26//1 22//1
f 22//2 26//2 25//2
f 24//3 25//3 26//3
f 24//4 23//4 25//4
f 31//5 28//5 27//5
f 27//6 30//6 31//6
f 31//7 29//7 28//7
f 33//8 36//8 38//8
f 33//9 38//9 32//9
f 37//10 38//10 35//10
f 32//11 38//11 37//11
f 35//12 34//12 37//12
f 42//13 39//13 43//13
f 42//14 41//14 40//14
f 39//15 42//15 40//15
f 44//16 49//16 45//16
f 45//17 49//17 48//17
f 47//18 48//18 49//18
f 47//19 46//19 48//19
f 51//20 54//20 50//20
f 54//21 51//21 53//21
f 50//22 54//22 52//22
f 55//23 60//23 56//23
f 56//24 60//24 59//24
f 58//25 59//25 60//25
f 58//26 57//26 59//26
f 65//27 62//27 61//27
f 61//28 64//28 65//28
f 65//29 63//29 62//29
f 67//30 66//30 72//30
f 67//31 72//31 70//31
f 71//32 72//32 68//32
f 70//33 72//33 71//33
f 68//34 69//34 71//34
f 76//35 73//35 77//35
f 76//36 75//36 74//36
f 73//37 76//37 74//37
f 78//38 83//38 79//38
f 79//39 83//39 82//39
f 81//40 82//40 83//40
f 81//41 80//41 82//41
f 88//42 84//42 87//42
f 85//43 88//43 86//43
f 84//44 88//44 85//44
f 96//45 94//45 89//45
f 94//46 96//46 93//46
f 95//47 90//47 91//47
f 96//48 95//48 93//48
f 93//49 95//49 91//49
f 94//50 92//50 89//50
f 102//51 103//51 100//51
f 100//52 98//52 99//52
f 98//53 100//53 103//53
f 97//54 103//54 102//54
f 102//55 104//55 97//55
f 105//56 97//56 104//56
f 106//57 101//57 105//57
f 104//58 106//58 105//58
f 110//59 113//59 112//59
f 112//60 109//60 110//60
f 114//61 111//61 107//61
f 113//62 114//62 107//62
f 113//63 108//63 112//63
f 110//64 114//64 113//64
f 119//65 120//65 117//65
f 115//66 121//66 122//66
f 117//67 120//67 116//67
f 125//68 115//68 122//68
f 119//69 124//69 123//69
f 119//70 123//70 120//70
f 124//71 119//71 121//71
f 121//72 115//72 124//72
f 122//73 118//73 125//73
f 131//74 127//74 126//74
f 133//75 130//75 129//75
f 132//76 133//76 129//76
f 126//77 133//77 132//77
f 132//78 128//78 131//78
f 126//79 132//79 131//79
f 135//80 139//80 136//80
f 138//81 139//81 135//81
f 138//82 143//82 141//82
f 144//83 137//83 142//83
f 143//84 138//84 140//84
f 138//85 141//85 139//85
f 137//86 140//86 142//86
f 140//87 137//87 143//87
f 142//88 134//88 144//88
f 150//89 145//89 148//89
f 152//90 150//90 148//90
f 151//91 147//91 146//91
f 152//92 151//92 149//92
f 150//93 152//93 149//93
f 149//94 151//94 146//94
f 153//95 155//95 154//95
f 162//96 157//96 161//96
f 155//97 153//97 159//97
f 156//98 159//98 158//98
f 160//99 162//99 161//99
f 158//100 159//100 153//100
f 161//101 156//101 160//101
f 158//102 160//102 156//102
